<?xml version="1.0" encoding="utf-8"?>
<!-- Generator: Adobe Illustrator 24.1.0, SVG Export Plug-In . SVG Version: 6.00 Build 0)  -->
<svg version="1.1" id="Layer_1" xmlns="http://www.w3.org/2000/svg" xmlns:xlink="http://www.w3.org/1999/xlink" x="0px" y="0px"
	 viewBox="0 0 757 201" style="enable-background:new 0 0 757 201;" xml:space="preserve">
<style type="text/css">
	.st0{display:none;fill:#2490C6;}
	.st1{fill:none;stroke:#000000;stroke-width:15;stroke-linecap:round;stroke-linejoin:round;stroke-miterlimit:10;}
	.st2{fill:none;stroke:#C95B68;stroke-width:15;stroke-linecap:square;stroke-miterlimit:10;}
	.st3{fill:#2598E5;}
	.st4{fill:#C95B68;}
</style>
<rect x="-59" y="-133" class="st0" width="500" height="500"/>
<path class="st1" d="M56.6,103"/>
<polyline class="st2" points="281.6,29.7 354,102.1 281.6,174.4 "/>
<polyline class="st2" points="100.2,174.4 27.9,102.1 100.2,29.7 "/>
<g>
	<path class="st3" d="M420.3,39c10.5,0,19.5,5.3,23.4,15.1h-9.9c-2.7-5.4-7.4-7.9-13.5-7.9c-10,0-17.2,7.1-17.2,18.4
		c0,11.4,7.2,18.5,17.2,18.5c6,0,10.8-2.5,13.5-7.9h9.9c-3.8,9.8-12.9,15-23.4,15c-14.2,0-25.7-10.6-25.7-25.7
		C394.7,49.7,406.2,39,420.3,39z"/>
	<path class="st3" d="M484.2,90.4c-14.2,0-25.7-10.6-25.7-25.7c0-15,11.5-25.7,25.7-25.7c14.3,0,25.7,10.6,25.7,25.7
		C509.9,79.8,498.5,90.4,484.2,90.4z M484.2,83.3c10,0,17.2-7.2,17.2-18.6c0-11.4-7.2-18.4-17.2-18.4S467,53.4,467,64.7
		C467,76.1,474.2,83.3,484.2,83.3z"/>
	<path class="st3" d="M569,65c0,15.5-10.6,24.9-26.7,24.9h-16.4V39.7h16.4C558.5,39.7,569,49.4,569,65z M542.3,83.2
		c11.9,0,18.2-6.8,18.2-18.2c0-11.5-6.4-18.6-18.2-18.6h-8.2v36.8H542.3z"/>
	<path class="st3" d="M612.9,46.3h-19.5v14.8h17.4v6.7h-17.4v15.4h19.5v6.7h-27.8V39.6h27.8V46.3z"/>
	<path class="st3" d="M648.3,39.7c11.9,0,17.8,6.9,17.8,15c0,5.9-3.2,12.3-11.6,14.4l12.4,20.8h-9.8l-11.6-20.1h-6.3v20.1H631V39.7
		H648.3z M648.3,46.4h-9.1v16.8h9.1c6.4,0,9.3-3.5,9.3-8.5C657.7,49.7,654.8,46.4,648.3,46.4z"/>
	<path class="st3" d="M701.2,90.4c-10.1,0-17.8-5.5-17.8-14.4h8.8c0.4,4.1,3.3,7.4,9,7.4c5.8,0,9-3.1,9-7.4
		c0-12.1-26.7-4.3-26.7-22.8c0-8.8,7-14.3,17.3-14.3c9.6,0,16.4,5.1,17.1,13.7h-9.1c-0.3-3.4-3.3-6.5-8.5-6.7
		c-4.8-0.1-8.5,2.2-8.5,7c0,11.4,26.6,4.3,26.6,22.6C718.6,83.2,712.4,90.4,701.2,90.4z"/>
	<path class="st3" d="M420.3,106.5c10.5,0,19.5,5.3,23.4,15.1h-9.9c-2.7-5.4-7.4-7.9-13.5-7.9c-10,0-17.2,7.1-17.2,18.4
		c0,11.4,7.2,18.5,17.2,18.5c6,0,10.8-2.5,13.5-7.9h9.9c-3.8,9.8-12.9,15-23.4,15c-14.2,0-25.7-10.6-25.7-25.7
		C394.7,117.2,406.2,106.5,420.3,106.5z"/>
	<path class="st3" d="M529.5,135.4h-23.6v22h-8.2v-50.3h8.2v21.5h23.6v-21.5h8.2v50.3h-8.2V135.4z"/>
	<path class="st3" d="M623.1,147.2h-21l-3.6,10.3h-8.6l18-50.3h9.5l18,50.3h-8.7L623.1,147.2z M612.7,117.1l-8.2,23.4h16.4
		L612.7,117.1z"/>
	<path class="st3" d="M684.9,107.2H720v6.7h-13.4v43.5h-8.2v-43.5h-13.4V107.2z"/>
</g>
<g>
	<path class="st3" d="M131,66.7c14.5,0,27,7.3,32.3,20.9h-13.7c-3.7-7.4-10.3-10.9-18.6-10.9c-13.8,0-23.8,9.8-23.8,25.5
		c0,15.7,10,25.6,23.8,25.6c8.3,0,14.9-3.5,18.6-10.9h13.7c-5.3,13.6-17.8,20.8-32.3,20.8c-19.6,0-35.5-14.6-35.5-35.5
		C95.5,81.4,111.4,66.7,131,66.7z"/>
	<path class="st4" d="M200.4,42.7h11.3l-27.2,111.9h-11.2L200.4,42.7z"/>
	<path class="st3" d="M255.9,66.7c14.5,0,27,7.3,32.3,20.9h-13.7c-3.7-7.4-10.3-10.9-18.6-10.9c-13.8,0-23.8,9.8-23.8,25.5
		c0,15.7,10,25.6,23.8,25.6c8.3,0,14.9-3.5,18.6-10.9h13.7c-5.3,13.6-17.8,20.8-32.3,20.8c-19.6,0-35.5-14.6-35.5-35.5
		C220.4,81.4,236.3,66.7,255.9,66.7z"/>
</g>
</svg>
