<?xml version="1.0" encoding="utf-8"?>
<!-- Generator: Adobe Illustrator 24.1.0, SVG Export Plug-In . SVG Version: 6.00 Build 0)  -->
<svg version="1.1" id="Layer_1" xmlns="http://www.w3.org/2000/svg" xmlns:xlink="http://www.w3.org/1999/xlink" x="0px" y="0px"
	 viewBox="0 0 512 512" style="enable-background:new 0 0 512 512;" xml:space="preserve">
<style type="text/css">
	.st0{fill:#F2F2F2;}
</style>
<path class="st0" d="M252.9,245.3c32.9,0,61.4-11.8,84.6-35.1c23.3-23.3,35.1-51.7,35.1-84.6c0-32.9-11.8-61.4-35.1-84.6
	c-23.3-23.3-51.8-35.1-84.6-35.1c-32.9,0-61.4,11.8-84.6,35.1s-35.1,51.7-35.1,84.6c0,32.9,11.8,61.4,35.1,84.6
	C191.5,233.5,220,245.3,252.9,245.3z"/>
<path class="st0" d="M462.3,388.1c-0.7-9.7-2-20.2-4-31.4c-2-11.2-4.6-21.9-7.7-31.6c-3.2-10-7.6-19.9-13-29.4
	c-5.6-9.9-12.2-18.4-19.6-25.5c-7.7-7.4-17.2-13.3-28.1-17.7c-10.9-4.3-23-6.5-35.9-6.5c-5.1,0-10,2.1-19.5,8.3
	c-5.8,3.8-12.7,8.2-20.3,13.1c-6.5,4.1-15.3,8-26.2,11.6c-10.6,3.4-21.4,5.2-32.1,5.2c-10.7,0-21.4-1.7-32.1-5.2
	c-10.9-3.5-19.7-7.4-26.2-11.5c-7.5-4.8-14.4-9.2-20.3-13.1C168,248.1,163,246,158,246c-12.9,0-25,2.2-35.9,6.5
	c-10.9,4.3-20.4,10.3-28.1,17.7c-7.4,7.1-14,15.6-19.6,25.5c-5.4,9.5-9.8,19.4-13,29.5c-3.1,9.7-5.7,20.3-7.7,31.6
	c-2,11.1-3.4,21.7-4,31.4c-0.7,9.5-1,19.4-1,29.3c0,25.9,8.2,46.9,24.5,62.4c16.1,15.3,37.3,23,63.2,23h239.3
	c25.8,0,47.1-7.8,63.2-23c16.3-15.5,24.5-36.5,24.5-62.4C463.3,407.4,463,397.5,462.3,388.1z"/>
</svg>
